<svg xmlns:x="http://ns.adobe.com/Extensibility/1.0/" xmlns:i="http://ns.adobe.com/AdobeIllustrator/10.0/" xmlns:graph="http://ns.adobe.com/Graphs/1.0/" xmlns="http://www.w3.org/2000/svg" xmlns:xlink="http://www.w3.org/1999/xlink" version="1.1" x="0px" y="0px" viewBox="0 0 100 125" style="enable-background:new 0 0 100 100;" xml:space="preserve"><switch><foreignObject requiredExtensions="http://ns.adobe.com/AdobeIllustrator/10.0/" x="0" y="0" width="1" height="1"/><g i:extraneous="self"><g><path d="M41.1,46.1c-1.4-1.2-2.9-2.2-4.6-3c0.1-1.3,0.1-2.5-0.3-3.8c7-2.1,11.2-9.4,9.4-16.6c-0.9-3.6-3.1-6.6-6.3-8.4     c-3.2-1.9-6.9-2.4-10.4-1.5C18.2,15.5,9.8,22.1,5.5,31.4c-4.3,9.3-4,19.9,1,30c1.6,3.2,4.3,5.6,7.6,6.9c1.6,0.6,3.2,0.8,4.8,0.8     c2.1,0,4.1-0.5,6-1.4c6.4-3.1,9.3-10.5,6.9-17.1c0.8-0.5,1.6-1.2,2.2-1.9c1.1,0.6,2.1,1.2,3,2c2.7,2.4,4,5.6,4,10v23.8     c0,1.7,1.4,3.1,3.1,3.1c1.7,0,3.1-1.4,3.1-3.1V60.7C47.2,54.6,45.2,49.7,41.1,46.1z M32,24.7c-5.1,1.3-9.4,3.8-12.4,7.3     c-0.6,0.6-1.3,1-2.1,1c-0.7,0-1.3-0.2-1.8-0.7c-1.2-1-1.3-2.8-0.3-3.9c3.8-4.4,9-7.5,15.3-9.1c1.5-0.4,3,0.5,3.4,2     C34.4,22.8,33.5,24.4,32,24.7z"/><path d="M94.5,31.4C90.2,22.1,81.9,15.5,71,12.8c-3.6-0.9-7.3-0.4-10.4,1.5c-3.1,1.9-5.4,4.9-6.3,8.4c-1.8,7.2,2.4,14.5,9.4,16.6     c-0.3,1.2-0.4,2.5-0.3,3.8c-1.6,0.8-3.2,1.8-4.6,3c-4.1,3.6-6.1,8.5-6.1,14.6v23.8c0,1.7,1.4,3.1,3.1,3.1c1.7,0,3.1-1.4,3.1-3.1     V60.7c0-4.3,1.3-7.6,4-9.9c0.9-0.8,1.9-1.5,3-2c0.7,0.7,1.4,1.4,2.2,1.9c-2.4,6.6,0.5,13.9,6.9,17.1c1.9,0.9,4,1.4,6,1.4     c1.6,0,3.2-0.3,4.8-0.8c3.3-1.2,6-3.7,7.6-6.9C98.5,51.3,98.8,40.7,94.5,31.4z M84.3,32.3c-0.5,0.5-1.2,0.7-1.8,0.7     c-0.8,0-1.6-0.3-2.1-1c-3-3.5-7.3-6-12.4-7.3c-1.5-0.4-2.4-1.9-2-3.4c0.4-1.5,1.9-2.4,3.4-2c6.2,1.6,11.5,4.7,15.2,9.1     C85.6,29.6,85.5,31.3,84.3,32.3z"/></g></g></switch><text x="0" y="115" fill="#000000" font-size="5px" font-weight="bold" font-family="'Helvetica Neue', Helvetica, Arial-Unicode, Arial, Sans-serif">Created by Adrien Coquet</text><text x="0" y="120" fill="#000000" font-size="5px" font-weight="bold" font-family="'Helvetica Neue', Helvetica, Arial-Unicode, Arial, Sans-serif">from the Noun Project</text></svg>